%TF.GenerationSoftware,KiCad,Pcbnew,(5.1.9)-1*%
%TF.CreationDate,2021-04-25T07:44:51-07:00*%
%TF.ProjectId,pyaa,70796161-2e6b-4696-9361-645f70636258,rev?*%
%TF.SameCoordinates,Original*%
%TF.FileFunction,Soldermask,Bot*%
%TF.FilePolarity,Negative*%
%FSLAX46Y46*%
G04 Gerber Fmt 4.6, Leading zero omitted, Abs format (unit mm)*
G04 Created by KiCad (PCBNEW (5.1.9)-1) date 2021-04-25 07:44:51*
%MOMM*%
%LPD*%
G01*
G04 APERTURE LIST*
%ADD10C,0.500000*%
%ADD11O,2.000000X1.600000*%
%ADD12C,0.800000*%
%ADD13C,2.000000*%
%ADD14C,3.429000*%
%ADD15C,2.032000*%
%ADD16C,0.990600*%
%ADD17C,1.701800*%
%ADD18C,1.524000*%
G04 APERTURE END LIST*
D10*
%TO.C,mouse-bite-2mm-slot*%
X148250000Y-61000000D03*
X149750000Y-61000000D03*
X148250000Y-60250000D03*
X148250000Y-61750000D03*
X149750000Y-61750000D03*
X149750000Y-60250000D03*
%TD*%
%TO.C,mouse-bite-2mm-slot*%
X149750000Y-72250000D03*
X149750000Y-73750000D03*
X148250000Y-73750000D03*
X148250000Y-72250000D03*
X149750000Y-73000000D03*
X148250000Y-73000000D03*
%TD*%
D11*
%TO.C,J2*%
X262950000Y-85290000D03*
X264050000Y-89890000D03*
X271050000Y-89890000D03*
D12*
X265650000Y-87590000D03*
X272650000Y-87590000D03*
D11*
X268050000Y-89890000D03*
%TD*%
%TO.C,J1*%
X35050000Y-89890001D03*
X33950000Y-85290001D03*
X26950000Y-85290001D03*
D12*
X32350000Y-87590001D03*
X25350000Y-87590001D03*
D11*
X29950000Y-85290001D03*
%TD*%
D13*
%TO.C,SW2*%
X258230000Y-84490000D03*
X258230000Y-90990000D03*
%TD*%
%TO.C,SW1*%
X39770000Y-84490001D03*
X39770000Y-90990001D03*
%TD*%
D14*
%TO.C,KST2*%
X50930000Y-68280001D03*
D15*
X45930000Y-72080001D03*
X50930000Y-74180001D03*
D16*
X56150000Y-64080001D03*
D17*
X56430000Y-68280001D03*
X45430000Y-68280001D03*
%TD*%
D14*
%TO.C,KHL1*%
X68680000Y-51530001D03*
D15*
X63680000Y-55330001D03*
X68680000Y-57430001D03*
D16*
X73900000Y-47330001D03*
D17*
X74180000Y-51530001D03*
X63180000Y-51530001D03*
%TD*%
D14*
%TO.C,KN1*%
X70006531Y-100103643D03*
D15*
X74270707Y-95493133D03*
X68982007Y-94293277D03*
D16*
X65595157Y-105146279D03*
D17*
X64590088Y-101058708D03*
X75422974Y-99148578D03*
%TD*%
D18*
%TO.C,U1*%
X25060000Y-53800001D03*
X25060000Y-56340001D03*
X25060000Y-58880001D03*
X25060000Y-61420001D03*
X25060000Y-63960001D03*
X25060000Y-66500001D03*
X25060000Y-69040001D03*
X25060000Y-71580001D03*
X25060000Y-74120001D03*
X25060000Y-76660001D03*
X25060000Y-79200001D03*
X25060000Y-81740001D03*
X40300000Y-81740001D03*
X40300000Y-79200001D03*
X40300000Y-76660001D03*
X40300000Y-74120001D03*
X40300000Y-71580001D03*
X40300000Y-69040001D03*
X40300000Y-66500001D03*
X40300000Y-63960001D03*
X40300000Y-61420001D03*
X40300000Y-58880001D03*
X40300000Y-56340001D03*
X40300000Y-53800001D03*
%TD*%
%TO.C,U2*%
X257700000Y-53800000D03*
X257700000Y-56340000D03*
X257700000Y-58880000D03*
X257700000Y-61420000D03*
X257700000Y-63960000D03*
X257700000Y-66500000D03*
X257700000Y-69040000D03*
X257700000Y-71580000D03*
X257700000Y-74120000D03*
X257700000Y-76660000D03*
X257700000Y-79200000D03*
X257700000Y-81740000D03*
X272940000Y-81740000D03*
X272940000Y-79200000D03*
X272940000Y-76660000D03*
X272940000Y-74120000D03*
X272940000Y-71580000D03*
X272940000Y-69040000D03*
X272940000Y-66500000D03*
X272940000Y-63960000D03*
X272940000Y-61420000D03*
X272940000Y-58880000D03*
X272940000Y-56340000D03*
X272940000Y-53800000D03*
%TD*%
D14*
%TO.C,KBR1*%
X211570000Y-64030000D03*
D15*
X206570000Y-67830000D03*
X211570000Y-69930000D03*
D16*
X216790000Y-59830000D03*
D17*
X217070000Y-64030000D03*
X206070000Y-64030000D03*
%TD*%
D14*
%TO.C,KLR1*%
X193820000Y-51530000D03*
D15*
X188820000Y-55330000D03*
X193820000Y-57430000D03*
D16*
X199040000Y-47330000D03*
D17*
X199320000Y-51530000D03*
X188320000Y-51530000D03*
%TD*%
D14*
%TO.C,KTR1*%
X176070000Y-58630000D03*
D15*
X171070000Y-62430000D03*
X176070000Y-64530000D03*
D16*
X181290000Y-54430000D03*
D17*
X181570000Y-58630000D03*
X170570000Y-58630000D03*
%TD*%
D14*
%TO.C,KST4*%
X247070000Y-68280000D03*
D15*
X242070000Y-72080000D03*
X247070000Y-74180000D03*
D16*
X252290000Y-64080000D03*
D17*
X252570000Y-68280000D03*
X241570000Y-68280000D03*
%TD*%
D14*
%TO.C,KST3*%
X247070000Y-51530000D03*
D15*
X242070000Y-55330000D03*
X247070000Y-57430000D03*
D16*
X252290000Y-47330000D03*
D17*
X252570000Y-51530000D03*
X241570000Y-51530000D03*
%TD*%
D14*
%TO.C,KSR1*%
X176070000Y-75380000D03*
D15*
X171070000Y-79180000D03*
X176070000Y-81280000D03*
D16*
X181290000Y-71180000D03*
D17*
X181570000Y-75380000D03*
X170570000Y-75380000D03*
%TD*%
D14*
%TO.C,KRR1*%
X229320000Y-68280000D03*
D15*
X224320000Y-72080000D03*
X229320000Y-74180000D03*
D16*
X234540000Y-64080000D03*
D17*
X234820000Y-68280000D03*
X223820000Y-68280000D03*
%TD*%
D14*
%TO.C,KPR1*%
X211570000Y-47280000D03*
D15*
X206570000Y-51080000D03*
X211570000Y-53180000D03*
D16*
X216790000Y-43080000D03*
D17*
X217070000Y-47280000D03*
X206070000Y-47280000D03*
%TD*%
D14*
%TO.C,KER1*%
X262954144Y-106368154D03*
D15*
X268538046Y-103494125D03*
X263978668Y-100557788D03*
D16*
X257084125Y-109597903D03*
D17*
X257537701Y-105413089D03*
X268370587Y-107323219D03*
%TD*%
D14*
%TO.C,KN2*%
X227993469Y-100203642D03*
D15*
X233577371Y-97329613D03*
X229017993Y-94393276D03*
D16*
X222123450Y-103433391D03*
D17*
X222577026Y-99248577D03*
X233409912Y-101158707D03*
%TD*%
D14*
%TO.C,KZR1*%
X158320000Y-75380000D03*
D15*
X153320000Y-79180000D03*
X158320000Y-81280000D03*
D16*
X163540000Y-71180000D03*
D17*
X163820000Y-75380000D03*
X152820000Y-75380000D03*
%TD*%
D14*
%TO.C,KGR1*%
X193820000Y-68280000D03*
D15*
X188820000Y-72080000D03*
X193820000Y-74180000D03*
D16*
X199040000Y-64080000D03*
D17*
X199320000Y-68280000D03*
X188320000Y-68280000D03*
%TD*%
D14*
%TO.C,KFR1*%
X229320000Y-51530000D03*
D15*
X224320000Y-55330000D03*
X229320000Y-57430000D03*
D16*
X234540000Y-47330000D03*
D17*
X234820000Y-51530000D03*
X223820000Y-51530000D03*
%TD*%
%TO.C,KUR1*%
X250890250Y-104240962D03*
X240057364Y-102330832D03*
D16*
X239603788Y-106515646D03*
D15*
X246498331Y-97475531D03*
X251057709Y-100411868D03*
D14*
X245473807Y-103285897D03*
%TD*%
%TO.C,KDR1*%
X158320000Y-58630000D03*
D15*
X153320000Y-62430000D03*
X158320000Y-64530000D03*
D16*
X163540000Y-54430000D03*
D17*
X163820000Y-58630000D03*
X152820000Y-58630000D03*
%TD*%
D14*
%TO.C,KWL1*%
X86430000Y-64030001D03*
D15*
X81430000Y-67830001D03*
X86430000Y-69930001D03*
D16*
X91650000Y-59830001D03*
D17*
X91930000Y-64030001D03*
X80930000Y-64030001D03*
%TD*%
D14*
%TO.C,KTL1*%
X104180000Y-51530001D03*
D15*
X99180000Y-55330001D03*
X104180000Y-57430001D03*
D16*
X109400000Y-47330001D03*
D17*
X109680000Y-51530001D03*
X98680000Y-51530001D03*
%TD*%
D14*
%TO.C,KST1*%
X50930000Y-51530001D03*
D15*
X45930000Y-55330001D03*
X50930000Y-57430001D03*
D16*
X56150000Y-47330001D03*
D17*
X56430000Y-51530001D03*
X45430000Y-51530001D03*
%TD*%
D14*
%TO.C,KSL2*%
X121930000Y-75380001D03*
D15*
X116930000Y-79180001D03*
X121930000Y-81280001D03*
D16*
X127150000Y-71180001D03*
D17*
X127430000Y-75380001D03*
X116430000Y-75380001D03*
%TD*%
D14*
%TO.C,KSL1*%
X121930000Y-58630001D03*
D15*
X116930000Y-62430001D03*
X121930000Y-64530001D03*
D16*
X127150000Y-54430001D03*
D17*
X127430000Y-58630001D03*
X116430000Y-58630001D03*
%TD*%
D14*
%TO.C,KRL1*%
X68680000Y-68280001D03*
D15*
X63680000Y-72080001D03*
X68680000Y-74180001D03*
D16*
X73900000Y-64080001D03*
D17*
X74180000Y-68280001D03*
X63180000Y-68280001D03*
%TD*%
D14*
%TO.C,KPL1*%
X86430000Y-47280001D03*
D15*
X81430000Y-51080001D03*
X86430000Y-53180001D03*
D16*
X91650000Y-43080001D03*
D17*
X91930000Y-47280001D03*
X80930000Y-47280001D03*
%TD*%
D14*
%TO.C,KO1*%
X35045856Y-106268155D03*
D15*
X39310032Y-101657645D03*
X34021332Y-100457789D03*
D16*
X30634482Y-111310791D03*
D17*
X29629413Y-107223220D03*
X40462299Y-105313090D03*
%TD*%
D14*
%TO.C,KKL1*%
X104180000Y-68280001D03*
D15*
X99180000Y-72080001D03*
X104180000Y-74180001D03*
D16*
X109400000Y-64080001D03*
D17*
X109680000Y-68280001D03*
X98680000Y-68280001D03*
%TD*%
D14*
%TO.C,KA1*%
X52526193Y-103185898D03*
D15*
X56790369Y-98575388D03*
X51501669Y-97375532D03*
D16*
X48114819Y-108228534D03*
D17*
X47109750Y-104140963D03*
X57942636Y-102230833D03*
%TD*%
D14*
%TO.C,K1*%
X139680000Y-75380001D03*
D15*
X134680000Y-79180001D03*
X139680000Y-81280001D03*
D16*
X144900000Y-71180001D03*
D17*
X145180000Y-75380001D03*
X134180000Y-75380001D03*
%TD*%
D14*
%TO.C,K0*%
X139680000Y-58630001D03*
D15*
X134680000Y-62430001D03*
X139680000Y-64530001D03*
D16*
X144900000Y-54430001D03*
D17*
X145180000Y-58630001D03*
X134180000Y-58630001D03*
%TD*%
M02*
