M48
; DRILL file {KiCad (5.1.9)-1} date 04/25/21 07:44:54
; FORMAT={-:-/ absolute / inch / decimal}
; #@! TF.CreationDate,2021-04-25T07:44:54-07:00
; #@! TF.GenerationSoftware,Kicad,Pcbnew,(5.1.9)-1
; #@! TF.FileFunction,Plated,1,2,PTH
FMAT,2
INCH
T1C0.0320
T2C0.0354
T3C0.0500
T4C0.0512
%
G90
G05
T1
X0.9866Y-2.1181
X0.9866Y-2.2181
X0.9866Y-2.3181
X0.9866Y-2.4181
X0.9866Y-2.5181
X0.9866Y-2.6181
X0.9866Y-2.7181
X0.9866Y-2.8181
X0.9866Y-2.9181
X0.9866Y-3.0181
X0.9866Y-3.1181
X0.9866Y-3.2181
X1.5866Y-2.1181
X1.5866Y-2.2181
X1.5866Y-2.3181
X1.5866Y-2.4181
X1.5866Y-2.5181
X1.5866Y-2.6181
X1.5866Y-2.7181
X1.5866Y-2.8181
X1.5866Y-2.9181
X1.5866Y-3.0181
X1.5866Y-3.1181
X1.5866Y-3.2181
X10.1457Y-2.1181
X10.1457Y-2.2181
X10.1457Y-2.3181
X10.1457Y-2.4181
X10.1457Y-2.5181
X10.1457Y-2.6181
X10.1457Y-2.7181
X10.1457Y-2.8181
X10.1457Y-2.9181
X10.1457Y-3.0181
X10.1457Y-3.1181
X10.1457Y-3.2181
X10.7457Y-2.1181
X10.7457Y-2.2181
X10.7457Y-2.3181
X10.7457Y-2.4181
X10.7457Y-2.5181
X10.7457Y-2.6181
X10.7457Y-2.7181
X10.7457Y-2.8181
X10.7457Y-2.9181
X10.7457Y-3.0181
X10.7457Y-3.1181
X10.7457Y-3.2181
T3
X1.3394Y-3.955
X1.5476Y-4.0023
X1.8083Y-2.1783
X1.8083Y-2.8378
X2.0051Y-2.261
X2.0051Y-2.9205
X2.0276Y-3.8337
X2.2358Y-3.8809
X2.5071Y-2.1783
X2.5071Y-2.8378
X2.7039Y-2.261
X2.7039Y-2.9205
X2.7158Y-3.7123
X2.924Y-3.7596
X3.2059Y-2.011
X3.2059Y-2.6705
X3.4028Y-2.0937
X3.4028Y-2.7531
X3.9047Y-2.1783
X3.9047Y-2.8378
X4.1016Y-2.261
X4.1016Y-2.9205
X4.6035Y-2.4579
X4.6035Y-3.1173
X4.8004Y-2.5406
X4.8004Y-3.2
X5.3024Y-2.4579
X5.3024Y-3.1173
X5.4992Y-2.5406
X5.4992Y-3.2
X6.0362Y-2.4579
X6.0362Y-3.1173
X6.2331Y-2.5406
X6.2331Y-3.2
X6.735Y-2.4579
X6.735Y-3.1173
X6.9319Y-2.5406
X6.9319Y-3.2
X7.4339Y-2.1783
X7.4339Y-2.8378
X7.6307Y-2.261
X7.6307Y-2.9205
X8.1327Y-2.011
X8.1327Y-2.6705
X8.3295Y-2.0937
X8.3295Y-2.7531
X8.8315Y-2.1783
X8.8315Y-2.8378
X9.0165Y-3.7163
X9.0283Y-2.261
X9.0283Y-2.9205
X9.196Y-3.8319
X9.5303Y-2.1783
X9.5303Y-2.8378
X9.7047Y-3.8376
X9.7272Y-2.261
X9.7272Y-2.9205
X9.8842Y-3.9532
X10.3929Y-3.959
X10.5724Y-4.0746
T4
X1.5657Y-3.3264
X1.5657Y-3.5823
X10.1665Y-3.3264
X10.1665Y-3.5823
T2
G00X1.0531Y-3.3579
M15
G01X1.0689Y-3.3579
M16
G05
G00X1.1713Y-3.3579
M15
G01X1.187Y-3.3579
M16
G05
G00X1.3287Y-3.3579
M15
G01X1.3445Y-3.3579
M16
G05
G00X1.372Y-3.539
M15
G01X1.3878Y-3.539
M16
G05
G00X10.3602Y-3.3579
M15
G01X10.3445Y-3.3579
M16
G05
G00X10.4035Y-3.539
M15
G01X10.3878Y-3.539
M16
G05
G00X10.561Y-3.539
M15
G01X10.5453Y-3.539
M16
G05
G00X10.6791Y-3.539
M15
G01X10.6634Y-3.539
M16
G05
T0
M30
