M48
; DRILL file {KiCad (5.1.9)-1} date 04/11/21 01:32:56
; FORMAT={-:-/ absolute / inch / decimal}
; #@! TF.CreationDate,2021-04-11T01:32:56-07:00
; #@! TF.GenerationSoftware,Kicad,Pcbnew,(5.1.9)-1
; #@! TF.FileFunction,NonPlated,1,2,NPTH
FMAT,2
INCH
T1C0.0390
T2C0.0472
T3C0.0670
T4C0.1350
%
G90
G05
T1
X3.4793Y-6.0713
X3.8841Y-5.9999
X4.1772Y-5.9482
X4.4469Y-3.5125
X4.4469Y-3.9235
X4.4469Y-4.2212
X4.4469Y-4.6322
X4.582Y-5.8769
X4.8751Y-5.8252
X5.1161Y-3.5125
X5.1161Y-3.9235
X5.1161Y-4.2212
X5.1161Y-4.6322
X5.2799Y-5.7538
X5.8248Y-3.3378
X5.8248Y-3.7488
X5.8248Y-4.0465
X5.8248Y-4.4575
X6.5335Y-3.5125
X6.5335Y-3.9235
X6.5335Y-4.2212
X6.5335Y-4.6322
X7.2421Y-3.792
X7.2421Y-4.2031
X7.2421Y-4.5007
X7.2421Y-4.9117
X7.9114Y-3.792
X7.9114Y-4.2031
X7.9114Y-4.5007
X7.9114Y-4.9117
T2
X3.2736Y-5.1417
X3.2736Y-5.2106
X3.5492Y-5.1417
X3.5492Y-5.2106
T3
X3.4397Y-5.9104
X3.8662Y-5.8352
X4.1376Y-5.7873
X4.2815Y-3.5015
X4.2815Y-3.9345
X4.2815Y-4.2101
X4.2815Y-4.6432
X4.5641Y-5.7121
X4.8355Y-5.6642
X4.9508Y-3.5015
X4.9508Y-3.9345
X4.9508Y-4.2101
X4.9508Y-4.6432
X5.262Y-5.589
X5.6594Y-3.3268
X5.6594Y-3.7598
X5.6594Y-4.0354
X5.6594Y-4.4685
X6.3681Y-3.5015
X6.3681Y-3.9345
X6.3681Y-4.2101
X6.3681Y-4.6432
X7.0768Y-3.781
X7.0768Y-4.2141
X7.0768Y-4.4897
X7.0768Y-4.9227
X7.7461Y-3.781
X7.7461Y-4.2141
X7.7461Y-4.4897
X7.7461Y-4.9227
T4
X3.653Y-5.8728
X4.2815Y-3.718
X4.2815Y-4.4267
X4.3509Y-5.7497
X4.9508Y-3.718
X4.9508Y-4.4267
X5.0488Y-5.6266
X5.6594Y-3.5433
X5.6594Y-4.252
X6.3681Y-3.718
X6.3681Y-4.4267
X7.0768Y-3.9975
X7.0768Y-4.7062
X7.7461Y-3.9975
X7.7461Y-4.7062
T0
M30
