M48
; DRILL file {KiCad (5.1.9)-1} date 04/11/21 01:32:56
; FORMAT={-:-/ absolute / inch / decimal}
; #@! TF.CreationDate,2021-04-11T01:32:56-07:00
; #@! TF.GenerationSoftware,Kicad,Pcbnew,(5.1.9)-1
; #@! TF.FileFunction,Plated,1,2,PTH
FMAT,2
INCH
T1C0.0394
T2C0.0430
T3C0.0500
T4C0.0512
%
G90
G05
T2
X3.263Y-3.7945
X3.263Y-3.8945
X3.263Y-3.9945
X3.263Y-4.0945
X3.263Y-4.1945
X3.263Y-4.2945
X3.263Y-4.3945
X3.263Y-4.4945
X3.263Y-4.5945
X3.263Y-4.6945
X3.263Y-4.7945
X3.263Y-4.8945
X3.863Y-3.7945
X3.863Y-3.8945
X3.863Y-3.9945
X3.863Y-4.0945
X3.863Y-4.1945
X3.863Y-4.2945
X3.863Y-4.3945
X3.863Y-4.4945
X3.863Y-4.5945
X3.863Y-4.6945
X3.863Y-4.7945
X3.863Y-4.8945
T3
X3.4331Y-5.7596
X3.6127Y-5.644
X3.8209Y-5.6912
X4.0492Y-3.718
X4.0492Y-4.4267
X4.131Y-5.6366
X4.1319Y-3.5212
X4.1319Y-3.9149
X4.1319Y-4.2298
X4.1319Y-4.6235
X4.3105Y-5.5209
X4.5188Y-5.5682
X4.7185Y-3.718
X4.7185Y-4.4267
X4.8012Y-3.5212
X4.8012Y-3.9149
X4.8012Y-4.2298
X4.8012Y-4.6235
X4.8289Y-5.5135
X5.0084Y-5.3979
X5.2167Y-5.4451
X5.4272Y-3.5433
X5.4272Y-4.252
X5.5098Y-3.3465
X5.5098Y-3.7402
X5.5098Y-4.0551
X5.5098Y-4.4488
X6.1358Y-3.718
X6.1358Y-4.4267
X6.2185Y-3.5212
X6.2185Y-3.9149
X6.2185Y-4.2298
X6.2185Y-4.6235
X6.8445Y-3.9975
X6.8445Y-4.7062
X6.9272Y-3.8007
X6.9272Y-4.1944
X6.9272Y-4.5094
X6.9272Y-4.9031
X7.5138Y-3.9975
X7.5138Y-4.7062
X7.5965Y-3.8007
X7.5965Y-4.1944
X7.5965Y-4.5094
X7.5965Y-4.9031
T4
X3.8583Y-5.0531
X3.8583Y-5.3091
T1
G00X3.3346Y-5.0591
M15
G01X3.3543Y-5.0591
M16
G05
G00X3.3346Y-5.2933
M15
G01X3.3543Y-5.2933
M16
G05
G00X3.4528Y-5.0591
M15
G01X3.4724Y-5.0591
M16
G05
G00X3.4528Y-5.2933
M15
G01X3.4724Y-5.2933
M16
G05
G00X3.6102Y-5.0591
M15
G01X3.6299Y-5.0591
M16
G05
G00X3.6102Y-5.2933
M15
G01X3.6299Y-5.2933
M16
G05
G00X3.6693Y-5.128
M15
G01X3.689Y-5.128
M16
G05
G00X3.6693Y-5.2244
M15
G01X3.689Y-5.2244
M16
G05
T0
M30
