M48
; DRILL file {KiCad (5.1.9)-1} date 04/25/21 07:44:54
; FORMAT={-:-/ absolute / inch / decimal}
; #@! TF.CreationDate,2021-04-25T07:44:54-07:00
; #@! TF.GenerationSoftware,Kicad,Pcbnew,(5.1.9)-1
; #@! TF.FileFunction,NonPlated,1,2,NPTH
FMAT,2
INCH
T1C0.0197
T2C0.0315
T3C0.0390
T4C0.0670
T5C0.1350
%
G90
G05
T1
X5.8366Y-2.372
X5.8366Y-2.4016
X5.8366Y-2.4311
X5.8366Y-2.8445
X5.8366Y-2.874
X5.8366Y-2.9035
X5.8957Y-2.372
X5.8957Y-2.4016
X5.8957Y-2.4311
X5.8957Y-2.8445
X5.8957Y-2.874
X5.8957Y-2.9035
T2
X0.998Y-3.4484
X1.2736Y-3.4484
X10.4587Y-3.4484
X10.7343Y-3.4484
T3
X1.2061Y-4.3823
X1.8943Y-4.261
X2.2106Y-1.8634
X2.2106Y-2.5228
X2.5825Y-4.1396
X2.9094Y-1.8634
X2.9094Y-2.5228
X3.6083Y-1.6961
X3.6083Y-2.3555
X4.3071Y-1.8634
X4.3071Y-2.5228
X5.0059Y-2.1429
X5.0059Y-2.8024
X5.7047Y-2.1429
X5.7047Y-2.8024
X6.4386Y-2.1429
X6.4386Y-2.8024
X7.1374Y-2.1429
X7.1374Y-2.8024
X7.8362Y-1.8634
X7.8362Y-2.5228
X8.535Y-1.6961
X8.535Y-2.3555
X8.745Y-4.0722
X9.2339Y-1.8634
X9.2339Y-2.5228
X9.4332Y-4.1935
X9.9327Y-1.8634
X9.9327Y-2.5228
X10.1214Y-4.3149
T4
X1.1665Y-4.2214
X1.593Y-4.1462
X1.7886Y-2.0287
X1.7886Y-2.6882
X1.8547Y-4.1
X2.2217Y-2.0287
X2.2217Y-2.6882
X2.2812Y-4.0248
X2.4874Y-2.0287
X2.4874Y-2.6882
X2.5429Y-3.9787
X2.9205Y-2.0287
X2.9205Y-2.6882
X2.9694Y-3.9035
X3.1862Y-1.8614
X3.1862Y-2.5209
X3.6193Y-1.8614
X3.6193Y-2.5209
X3.885Y-2.0287
X3.885Y-2.6882
X4.3181Y-2.0287
X4.3181Y-2.6882
X4.5839Y-2.3083
X4.5839Y-2.9677
X5.0169Y-2.3083
X5.0169Y-2.9677
X5.2827Y-2.3083
X5.2827Y-2.9677
X5.7157Y-2.3083
X5.7157Y-2.9677
X6.0165Y-2.3083
X6.0165Y-2.9677
X6.4496Y-2.3083
X6.4496Y-2.9677
X6.7154Y-2.3083
X6.7154Y-2.9677
X7.1484Y-2.3083
X7.1484Y-2.9677
X7.4142Y-2.0287
X7.4142Y-2.6882
X7.8472Y-2.0287
X7.8472Y-2.6882
X8.113Y-1.8614
X8.113Y-2.5209
X8.5461Y-1.8614
X8.5461Y-2.5209
X8.7629Y-3.9074
X8.8118Y-2.0287
X8.8118Y-2.6882
X9.1894Y-3.9826
X9.2449Y-2.0287
X9.2449Y-2.6882
X9.4511Y-4.0288
X9.5106Y-2.0287
X9.5106Y-2.6882
X9.8776Y-4.104
X9.9437Y-2.0287
X9.9437Y-2.6882
X10.1393Y-4.1501
X10.5658Y-4.2253
T5
X1.3798Y-4.1838
X2.0051Y-2.0287
X2.0051Y-2.6882
X2.068Y-4.0624
X2.7039Y-2.0287
X2.7039Y-2.6882
X2.7562Y-3.9411
X3.4028Y-1.8614
X3.4028Y-2.5209
X4.1016Y-2.0287
X4.1016Y-2.6882
X4.8004Y-2.3083
X4.8004Y-2.9677
X5.4992Y-2.3083
X5.4992Y-2.9677
X6.2331Y-2.3083
X6.2331Y-2.9677
X6.9319Y-2.3083
X6.9319Y-2.9677
X7.6307Y-2.0287
X7.6307Y-2.6882
X8.3295Y-1.8614
X8.3295Y-2.5209
X8.9761Y-3.945
X9.0283Y-2.0287
X9.0283Y-2.6882
X9.6643Y-4.0664
X9.7272Y-2.0287
X9.7272Y-2.6882
X10.3525Y-4.1877
T0
M30
