%TF.GenerationSoftware,KiCad,Pcbnew,(5.1.9)-1*%
%TF.CreationDate,2021-04-11T01:29:47-07:00*%
%TF.ProjectId,pyaa,70796161-2e6b-4696-9361-645f70636258,rev?*%
%TF.SameCoordinates,Original*%
%TF.FileFunction,Legend,Bot*%
%TF.FilePolarity,Positive*%
%FSLAX46Y46*%
G04 Gerber Fmt 4.6, Leading zero omitted, Abs format (unit mm)*
G04 Created by KiCad (PCBNEW (5.1.9)-1) date 2021-04-11 01:29:47*
%MOMM*%
%LPD*%
G01*
G04 APERTURE LIST*
%ADD10C,0.150000*%
%ADD11C,0.381000*%
G04 APERTURE END LIST*
D10*
%TO.C,SW1*%
X99800000Y-128600000D02*
X99800000Y-134500000D01*
X99800000Y-128600000D02*
X99800000Y-134600000D01*
X96300000Y-134600000D02*
X96300000Y-128600000D01*
X99800000Y-134600000D02*
X99100000Y-134600000D01*
X96300000Y-134600000D02*
X96900000Y-134600000D01*
X96300000Y-128600000D02*
X96900000Y-128600000D01*
X99800000Y-128600000D02*
X99100000Y-128600000D01*
%TO.C,J1*%
X93650000Y-135350000D02*
X81650000Y-135350000D01*
X93650000Y-129350000D02*
X93650000Y-135350000D01*
X81650000Y-129350000D02*
X93650000Y-129350000D01*
X81650000Y-135350000D02*
X81650000Y-129350000D01*
D11*
%TO.C,U1*%
X84150000Y-97650000D02*
X81610000Y-97650000D01*
X84150000Y-95110000D02*
X84150000Y-97650000D01*
D10*
G36*
X96544635Y-101399030D02*
G01*
X96544635Y-101499030D01*
X96644635Y-101499030D01*
X96644635Y-101399030D01*
X96544635Y-101399030D01*
G37*
X96544635Y-101399030D02*
X96544635Y-101499030D01*
X96644635Y-101499030D01*
X96644635Y-101399030D01*
X96544635Y-101399030D01*
G36*
X96744635Y-100999030D02*
G01*
X96744635Y-101799030D01*
X96844635Y-101799030D01*
X96844635Y-100999030D01*
X96744635Y-100999030D01*
G37*
X96744635Y-100999030D02*
X96744635Y-101799030D01*
X96844635Y-101799030D01*
X96844635Y-100999030D01*
X96744635Y-100999030D01*
G36*
X96344635Y-101599030D02*
G01*
X96344635Y-101799030D01*
X96444635Y-101799030D01*
X96444635Y-101599030D01*
X96344635Y-101599030D01*
G37*
X96344635Y-101599030D02*
X96344635Y-101799030D01*
X96444635Y-101799030D01*
X96444635Y-101599030D01*
X96344635Y-101599030D01*
G36*
X96344635Y-100999030D02*
G01*
X96344635Y-101299030D01*
X96444635Y-101299030D01*
X96444635Y-100999030D01*
X96344635Y-100999030D01*
G37*
X96344635Y-100999030D02*
X96344635Y-101299030D01*
X96444635Y-101299030D01*
X96444635Y-100999030D01*
X96344635Y-100999030D01*
G36*
X96344635Y-100999030D02*
G01*
X96344635Y-101099030D01*
X96844635Y-101099030D01*
X96844635Y-100999030D01*
X96344635Y-100999030D01*
G37*
X96344635Y-100999030D02*
X96344635Y-101099030D01*
X96844635Y-101099030D01*
X96844635Y-100999030D01*
X96344635Y-100999030D01*
D11*
X99390000Y-125590000D02*
X99390000Y-92570000D01*
X81610000Y-125590000D02*
X99390000Y-125590000D01*
X81610000Y-92570000D02*
X81610000Y-125590000D01*
X99390000Y-92570000D02*
X81610000Y-92570000D01*
X84150000Y-95110000D02*
X81610000Y-95110000D01*
%TO.C,SW1*%
D10*
X98361904Y-130438095D02*
X97980952Y-130171428D01*
X98361904Y-129980952D02*
X97561904Y-129980952D01*
X97561904Y-130285714D01*
X97600000Y-130361904D01*
X97638095Y-130400000D01*
X97714285Y-130438095D01*
X97828571Y-130438095D01*
X97904761Y-130400000D01*
X97942857Y-130361904D01*
X97980952Y-130285714D01*
X97980952Y-129980952D01*
X97942857Y-130780952D02*
X97942857Y-131047619D01*
X98361904Y-131161904D02*
X98361904Y-130780952D01*
X97561904Y-130780952D01*
X97561904Y-131161904D01*
X98323809Y-131466666D02*
X98361904Y-131580952D01*
X98361904Y-131771428D01*
X98323809Y-131847619D01*
X98285714Y-131885714D01*
X98209523Y-131923809D01*
X98133333Y-131923809D01*
X98057142Y-131885714D01*
X98019047Y-131847619D01*
X97980952Y-131771428D01*
X97942857Y-131619047D01*
X97904761Y-131542857D01*
X97866666Y-131504761D01*
X97790476Y-131466666D01*
X97714285Y-131466666D01*
X97638095Y-131504761D01*
X97600000Y-131542857D01*
X97561904Y-131619047D01*
X97561904Y-131809523D01*
X97600000Y-131923809D01*
X97942857Y-132266666D02*
X97942857Y-132533333D01*
X98361904Y-132647619D02*
X98361904Y-132266666D01*
X97561904Y-132266666D01*
X97561904Y-132647619D01*
X97561904Y-132876190D02*
X97561904Y-133333333D01*
X98361904Y-133104761D02*
X97561904Y-133104761D01*
%TO.C,U1*%
X85629476Y-99281904D02*
X85629476Y-98481904D01*
X85439000Y-98481904D01*
X85324714Y-98520000D01*
X85248523Y-98596190D01*
X85210428Y-98672380D01*
X85172333Y-98824761D01*
X85172333Y-98939047D01*
X85210428Y-99091428D01*
X85248523Y-99167619D01*
X85324714Y-99243809D01*
X85439000Y-99281904D01*
X85629476Y-99281904D01*
X84867571Y-98558095D02*
X84829476Y-98520000D01*
X84753285Y-98481904D01*
X84562809Y-98481904D01*
X84486619Y-98520000D01*
X84448523Y-98558095D01*
X84410428Y-98634285D01*
X84410428Y-98710476D01*
X84448523Y-98824761D01*
X84905666Y-99281904D01*
X84410428Y-99281904D01*
X85629476Y-109441904D02*
X85629476Y-108641904D01*
X85439000Y-108641904D01*
X85324714Y-108680000D01*
X85248523Y-108756190D01*
X85210428Y-108832380D01*
X85172333Y-108984761D01*
X85172333Y-109099047D01*
X85210428Y-109251428D01*
X85248523Y-109327619D01*
X85324714Y-109403809D01*
X85439000Y-109441904D01*
X85629476Y-109441904D01*
X84677095Y-108641904D02*
X84600904Y-108641904D01*
X84524714Y-108680000D01*
X84486619Y-108718095D01*
X84448523Y-108794285D01*
X84410428Y-108946666D01*
X84410428Y-109137142D01*
X84448523Y-109289523D01*
X84486619Y-109365714D01*
X84524714Y-109403809D01*
X84600904Y-109441904D01*
X84677095Y-109441904D01*
X84753285Y-109403809D01*
X84791380Y-109365714D01*
X84829476Y-109289523D01*
X84867571Y-109137142D01*
X84867571Y-108946666D01*
X84829476Y-108794285D01*
X84791380Y-108718095D01*
X84753285Y-108680000D01*
X84677095Y-108641904D01*
X85629476Y-106901904D02*
X85629476Y-106101904D01*
X85439000Y-106101904D01*
X85324714Y-106140000D01*
X85248523Y-106216190D01*
X85210428Y-106292380D01*
X85172333Y-106444761D01*
X85172333Y-106559047D01*
X85210428Y-106711428D01*
X85248523Y-106787619D01*
X85324714Y-106863809D01*
X85439000Y-106901904D01*
X85629476Y-106901904D01*
X84410428Y-106901904D02*
X84867571Y-106901904D01*
X84639000Y-106901904D02*
X84639000Y-106101904D01*
X84715190Y-106216190D01*
X84791380Y-106292380D01*
X84867571Y-106330476D01*
X85648523Y-103600000D02*
X85724714Y-103561904D01*
X85839000Y-103561904D01*
X85953285Y-103600000D01*
X86029476Y-103676190D01*
X86067571Y-103752380D01*
X86105666Y-103904761D01*
X86105666Y-104019047D01*
X86067571Y-104171428D01*
X86029476Y-104247619D01*
X85953285Y-104323809D01*
X85839000Y-104361904D01*
X85762809Y-104361904D01*
X85648523Y-104323809D01*
X85610428Y-104285714D01*
X85610428Y-104019047D01*
X85762809Y-104019047D01*
X85267571Y-104361904D02*
X85267571Y-103561904D01*
X84810428Y-104361904D01*
X84810428Y-103561904D01*
X84429476Y-104361904D02*
X84429476Y-103561904D01*
X84239000Y-103561904D01*
X84124714Y-103600000D01*
X84048523Y-103676190D01*
X84010428Y-103752380D01*
X83972333Y-103904761D01*
X83972333Y-104019047D01*
X84010428Y-104171428D01*
X84048523Y-104247619D01*
X84124714Y-104323809D01*
X84239000Y-104361904D01*
X84429476Y-104361904D01*
X85648523Y-101060000D02*
X85724714Y-101021904D01*
X85839000Y-101021904D01*
X85953285Y-101060000D01*
X86029476Y-101136190D01*
X86067571Y-101212380D01*
X86105666Y-101364761D01*
X86105666Y-101479047D01*
X86067571Y-101631428D01*
X86029476Y-101707619D01*
X85953285Y-101783809D01*
X85839000Y-101821904D01*
X85762809Y-101821904D01*
X85648523Y-101783809D01*
X85610428Y-101745714D01*
X85610428Y-101479047D01*
X85762809Y-101479047D01*
X85267571Y-101821904D02*
X85267571Y-101021904D01*
X84810428Y-101821904D01*
X84810428Y-101021904D01*
X84429476Y-101821904D02*
X84429476Y-101021904D01*
X84239000Y-101021904D01*
X84124714Y-101060000D01*
X84048523Y-101136190D01*
X84010428Y-101212380D01*
X83972333Y-101364761D01*
X83972333Y-101479047D01*
X84010428Y-101631428D01*
X84048523Y-101707619D01*
X84124714Y-101783809D01*
X84239000Y-101821904D01*
X84429476Y-101821904D01*
X85629476Y-111981904D02*
X85629476Y-111181904D01*
X85439000Y-111181904D01*
X85324714Y-111220000D01*
X85248523Y-111296190D01*
X85210428Y-111372380D01*
X85172333Y-111524761D01*
X85172333Y-111639047D01*
X85210428Y-111791428D01*
X85248523Y-111867619D01*
X85324714Y-111943809D01*
X85439000Y-111981904D01*
X85629476Y-111981904D01*
X84486619Y-111448571D02*
X84486619Y-111981904D01*
X84677095Y-111143809D02*
X84867571Y-111715238D01*
X84372333Y-111715238D01*
X85172333Y-114445714D02*
X85210428Y-114483809D01*
X85324714Y-114521904D01*
X85400904Y-114521904D01*
X85515190Y-114483809D01*
X85591380Y-114407619D01*
X85629476Y-114331428D01*
X85667571Y-114179047D01*
X85667571Y-114064761D01*
X85629476Y-113912380D01*
X85591380Y-113836190D01*
X85515190Y-113760000D01*
X85400904Y-113721904D01*
X85324714Y-113721904D01*
X85210428Y-113760000D01*
X85172333Y-113798095D01*
X84486619Y-113721904D02*
X84639000Y-113721904D01*
X84715190Y-113760000D01*
X84753285Y-113798095D01*
X84829476Y-113912380D01*
X84867571Y-114064761D01*
X84867571Y-114369523D01*
X84829476Y-114445714D01*
X84791380Y-114483809D01*
X84715190Y-114521904D01*
X84562809Y-114521904D01*
X84486619Y-114483809D01*
X84448523Y-114445714D01*
X84410428Y-114369523D01*
X84410428Y-114179047D01*
X84448523Y-114102857D01*
X84486619Y-114064761D01*
X84562809Y-114026666D01*
X84715190Y-114026666D01*
X84791380Y-114064761D01*
X84829476Y-114102857D01*
X84867571Y-114179047D01*
X85629476Y-117061904D02*
X85629476Y-116261904D01*
X85439000Y-116261904D01*
X85324714Y-116300000D01*
X85248523Y-116376190D01*
X85210428Y-116452380D01*
X85172333Y-116604761D01*
X85172333Y-116719047D01*
X85210428Y-116871428D01*
X85248523Y-116947619D01*
X85324714Y-117023809D01*
X85439000Y-117061904D01*
X85629476Y-117061904D01*
X84905666Y-116261904D02*
X84372333Y-116261904D01*
X84715190Y-117061904D01*
X85591380Y-119182857D02*
X85324714Y-119182857D01*
X85210428Y-119601904D02*
X85591380Y-119601904D01*
X85591380Y-118801904D01*
X85210428Y-118801904D01*
X84524714Y-118801904D02*
X84677095Y-118801904D01*
X84753285Y-118840000D01*
X84791380Y-118878095D01*
X84867571Y-118992380D01*
X84905666Y-119144761D01*
X84905666Y-119449523D01*
X84867571Y-119525714D01*
X84829476Y-119563809D01*
X84753285Y-119601904D01*
X84600904Y-119601904D01*
X84524714Y-119563809D01*
X84486619Y-119525714D01*
X84448523Y-119449523D01*
X84448523Y-119259047D01*
X84486619Y-119182857D01*
X84524714Y-119144761D01*
X84600904Y-119106666D01*
X84753285Y-119106666D01*
X84829476Y-119144761D01*
X84867571Y-119182857D01*
X84905666Y-119259047D01*
X85362809Y-121722857D02*
X85248523Y-121760952D01*
X85210428Y-121799047D01*
X85172333Y-121875238D01*
X85172333Y-121989523D01*
X85210428Y-122065714D01*
X85248523Y-122103809D01*
X85324714Y-122141904D01*
X85629476Y-122141904D01*
X85629476Y-121341904D01*
X85362809Y-121341904D01*
X85286619Y-121380000D01*
X85248523Y-121418095D01*
X85210428Y-121494285D01*
X85210428Y-121570476D01*
X85248523Y-121646666D01*
X85286619Y-121684761D01*
X85362809Y-121722857D01*
X85629476Y-121722857D01*
X84486619Y-121608571D02*
X84486619Y-122141904D01*
X84677095Y-121303809D02*
X84867571Y-121875238D01*
X84372333Y-121875238D01*
X85362809Y-124262857D02*
X85248523Y-124300952D01*
X85210428Y-124339047D01*
X85172333Y-124415238D01*
X85172333Y-124529523D01*
X85210428Y-124605714D01*
X85248523Y-124643809D01*
X85324714Y-124681904D01*
X85629476Y-124681904D01*
X85629476Y-123881904D01*
X85362809Y-123881904D01*
X85286619Y-123920000D01*
X85248523Y-123958095D01*
X85210428Y-124034285D01*
X85210428Y-124110476D01*
X85248523Y-124186666D01*
X85286619Y-124224761D01*
X85362809Y-124262857D01*
X85629476Y-124262857D01*
X84448523Y-123881904D02*
X84829476Y-123881904D01*
X84867571Y-124262857D01*
X84829476Y-124224761D01*
X84753285Y-124186666D01*
X84562809Y-124186666D01*
X84486619Y-124224761D01*
X84448523Y-124262857D01*
X84410428Y-124339047D01*
X84410428Y-124529523D01*
X84448523Y-124605714D01*
X84486619Y-124643809D01*
X84562809Y-124681904D01*
X84753285Y-124681904D01*
X84829476Y-124643809D01*
X84867571Y-124605714D01*
X96284809Y-124262857D02*
X96170523Y-124300952D01*
X96132428Y-124339047D01*
X96094333Y-124415238D01*
X96094333Y-124529523D01*
X96132428Y-124605714D01*
X96170523Y-124643809D01*
X96246714Y-124681904D01*
X96551476Y-124681904D01*
X96551476Y-123881904D01*
X96284809Y-123881904D01*
X96208619Y-123920000D01*
X96170523Y-123958095D01*
X96132428Y-124034285D01*
X96132428Y-124110476D01*
X96170523Y-124186666D01*
X96208619Y-124224761D01*
X96284809Y-124262857D01*
X96551476Y-124262857D01*
X95408619Y-123881904D02*
X95561000Y-123881904D01*
X95637190Y-123920000D01*
X95675285Y-123958095D01*
X95751476Y-124072380D01*
X95789571Y-124224761D01*
X95789571Y-124529523D01*
X95751476Y-124605714D01*
X95713380Y-124643809D01*
X95637190Y-124681904D01*
X95484809Y-124681904D01*
X95408619Y-124643809D01*
X95370523Y-124605714D01*
X95332428Y-124529523D01*
X95332428Y-124339047D01*
X95370523Y-124262857D01*
X95408619Y-124224761D01*
X95484809Y-124186666D01*
X95637190Y-124186666D01*
X95713380Y-124224761D01*
X95751476Y-124262857D01*
X95789571Y-124339047D01*
X96284809Y-119182857D02*
X96170523Y-119220952D01*
X96132428Y-119259047D01*
X96094333Y-119335238D01*
X96094333Y-119449523D01*
X96132428Y-119525714D01*
X96170523Y-119563809D01*
X96246714Y-119601904D01*
X96551476Y-119601904D01*
X96551476Y-118801904D01*
X96284809Y-118801904D01*
X96208619Y-118840000D01*
X96170523Y-118878095D01*
X96132428Y-118954285D01*
X96132428Y-119030476D01*
X96170523Y-119106666D01*
X96208619Y-119144761D01*
X96284809Y-119182857D01*
X96551476Y-119182857D01*
X95827666Y-118801904D02*
X95332428Y-118801904D01*
X95599095Y-119106666D01*
X95484809Y-119106666D01*
X95408619Y-119144761D01*
X95370523Y-119182857D01*
X95332428Y-119259047D01*
X95332428Y-119449523D01*
X95370523Y-119525714D01*
X95408619Y-119563809D01*
X95484809Y-119601904D01*
X95713380Y-119601904D01*
X95789571Y-119563809D01*
X95827666Y-119525714D01*
X96284809Y-116642857D02*
X96170523Y-116680952D01*
X96132428Y-116719047D01*
X96094333Y-116795238D01*
X96094333Y-116909523D01*
X96132428Y-116985714D01*
X96170523Y-117023809D01*
X96246714Y-117061904D01*
X96551476Y-117061904D01*
X96551476Y-116261904D01*
X96284809Y-116261904D01*
X96208619Y-116300000D01*
X96170523Y-116338095D01*
X96132428Y-116414285D01*
X96132428Y-116490476D01*
X96170523Y-116566666D01*
X96208619Y-116604761D01*
X96284809Y-116642857D01*
X96551476Y-116642857D01*
X95332428Y-117061904D02*
X95789571Y-117061904D01*
X95561000Y-117061904D02*
X95561000Y-116261904D01*
X95637190Y-116376190D01*
X95713380Y-116452380D01*
X95789571Y-116490476D01*
X96227666Y-106482857D02*
X96494333Y-106482857D01*
X96494333Y-106901904D02*
X96494333Y-106101904D01*
X96113380Y-106101904D01*
X95465761Y-106368571D02*
X95465761Y-106901904D01*
X95656238Y-106063809D02*
X95846714Y-106635238D01*
X95351476Y-106635238D01*
X97027666Y-103561904D02*
X96761000Y-104361904D01*
X96494333Y-103561904D01*
X95770523Y-104285714D02*
X95808619Y-104323809D01*
X95922904Y-104361904D01*
X95999095Y-104361904D01*
X96113380Y-104323809D01*
X96189571Y-104247619D01*
X96227666Y-104171428D01*
X96265761Y-104019047D01*
X96265761Y-103904761D01*
X96227666Y-103752380D01*
X96189571Y-103676190D01*
X96113380Y-103600000D01*
X95999095Y-103561904D01*
X95922904Y-103561904D01*
X95808619Y-103600000D01*
X95770523Y-103638095D01*
X94970523Y-104285714D02*
X95008619Y-104323809D01*
X95122904Y-104361904D01*
X95199095Y-104361904D01*
X95313380Y-104323809D01*
X95389571Y-104247619D01*
X95427666Y-104171428D01*
X95465761Y-104019047D01*
X95465761Y-103904761D01*
X95427666Y-103752380D01*
X95389571Y-103676190D01*
X95313380Y-103600000D01*
X95199095Y-103561904D01*
X95122904Y-103561904D01*
X95008619Y-103600000D01*
X94970523Y-103638095D01*
X96570523Y-98520000D02*
X96646714Y-98481904D01*
X96761000Y-98481904D01*
X96875285Y-98520000D01*
X96951476Y-98596190D01*
X96989571Y-98672380D01*
X97027666Y-98824761D01*
X97027666Y-98939047D01*
X96989571Y-99091428D01*
X96951476Y-99167619D01*
X96875285Y-99243809D01*
X96761000Y-99281904D01*
X96684809Y-99281904D01*
X96570523Y-99243809D01*
X96532428Y-99205714D01*
X96532428Y-98939047D01*
X96684809Y-98939047D01*
X96189571Y-99281904D02*
X96189571Y-98481904D01*
X95732428Y-99281904D01*
X95732428Y-98481904D01*
X95351476Y-99281904D02*
X95351476Y-98481904D01*
X95161000Y-98481904D01*
X95046714Y-98520000D01*
X94970523Y-98596190D01*
X94932428Y-98672380D01*
X94894333Y-98824761D01*
X94894333Y-98939047D01*
X94932428Y-99091428D01*
X94970523Y-99167619D01*
X95046714Y-99243809D01*
X95161000Y-99281904D01*
X95351476Y-99281904D01*
X96513380Y-96741904D02*
X96780047Y-96360952D01*
X96970523Y-96741904D02*
X96970523Y-95941904D01*
X96665761Y-95941904D01*
X96589571Y-95980000D01*
X96551476Y-96018095D01*
X96513380Y-96094285D01*
X96513380Y-96208571D01*
X96551476Y-96284761D01*
X96589571Y-96322857D01*
X96665761Y-96360952D01*
X96970523Y-96360952D01*
X96208619Y-96513333D02*
X95827666Y-96513333D01*
X96284809Y-96741904D02*
X96018142Y-95941904D01*
X95751476Y-96741904D01*
X95561000Y-95941904D02*
X95370523Y-96741904D01*
X95218142Y-96170476D01*
X95065761Y-96741904D01*
X94875285Y-95941904D01*
X96227666Y-109022857D02*
X96494333Y-109022857D01*
X96494333Y-109441904D02*
X96494333Y-108641904D01*
X96113380Y-108641904D01*
X95427666Y-108641904D02*
X95808619Y-108641904D01*
X95846714Y-109022857D01*
X95808619Y-108984761D01*
X95732428Y-108946666D01*
X95541952Y-108946666D01*
X95465761Y-108984761D01*
X95427666Y-109022857D01*
X95389571Y-109099047D01*
X95389571Y-109289523D01*
X95427666Y-109365714D01*
X95465761Y-109403809D01*
X95541952Y-109441904D01*
X95732428Y-109441904D01*
X95808619Y-109403809D01*
X95846714Y-109365714D01*
X96227666Y-111562857D02*
X96494333Y-111562857D01*
X96494333Y-111981904D02*
X96494333Y-111181904D01*
X96113380Y-111181904D01*
X95465761Y-111181904D02*
X95618142Y-111181904D01*
X95694333Y-111220000D01*
X95732428Y-111258095D01*
X95808619Y-111372380D01*
X95846714Y-111524761D01*
X95846714Y-111829523D01*
X95808619Y-111905714D01*
X95770523Y-111943809D01*
X95694333Y-111981904D01*
X95541952Y-111981904D01*
X95465761Y-111943809D01*
X95427666Y-111905714D01*
X95389571Y-111829523D01*
X95389571Y-111639047D01*
X95427666Y-111562857D01*
X95465761Y-111524761D01*
X95541952Y-111486666D01*
X95694333Y-111486666D01*
X95770523Y-111524761D01*
X95808619Y-111562857D01*
X95846714Y-111639047D01*
X96227666Y-114102857D02*
X96494333Y-114102857D01*
X96494333Y-114521904D02*
X96494333Y-113721904D01*
X96113380Y-113721904D01*
X95884809Y-113721904D02*
X95351476Y-113721904D01*
X95694333Y-114521904D01*
X96284809Y-121722857D02*
X96170523Y-121760952D01*
X96132428Y-121799047D01*
X96094333Y-121875238D01*
X96094333Y-121989523D01*
X96132428Y-122065714D01*
X96170523Y-122103809D01*
X96246714Y-122141904D01*
X96551476Y-122141904D01*
X96551476Y-121341904D01*
X96284809Y-121341904D01*
X96208619Y-121380000D01*
X96170523Y-121418095D01*
X96132428Y-121494285D01*
X96132428Y-121570476D01*
X96170523Y-121646666D01*
X96208619Y-121684761D01*
X96284809Y-121722857D01*
X96551476Y-121722857D01*
X95789571Y-121418095D02*
X95751476Y-121380000D01*
X95675285Y-121341904D01*
X95484809Y-121341904D01*
X95408619Y-121380000D01*
X95370523Y-121418095D01*
X95332428Y-121494285D01*
X95332428Y-121570476D01*
X95370523Y-121684761D01*
X95827666Y-122141904D01*
X95332428Y-122141904D01*
X89118604Y-95941904D02*
X88661461Y-95941904D01*
X88890032Y-96741904D02*
X88890032Y-95941904D01*
X88470985Y-95941904D02*
X87937651Y-96741904D01*
X87937651Y-95941904D02*
X88470985Y-96741904D01*
X87480508Y-95941904D02*
X87404318Y-95941904D01*
X87328128Y-95980000D01*
X87290032Y-96018095D01*
X87251937Y-96094285D01*
X87213842Y-96246666D01*
X87213842Y-96437142D01*
X87251937Y-96589523D01*
X87290032Y-96665714D01*
X87328128Y-96703809D01*
X87404318Y-96741904D01*
X87480508Y-96741904D01*
X87556699Y-96703809D01*
X87594794Y-96665714D01*
X87632889Y-96589523D01*
X87670985Y-96437142D01*
X87670985Y-96246666D01*
X87632889Y-96094285D01*
X87594794Y-96018095D01*
X87556699Y-95980000D01*
X87480508Y-95941904D01*
X86299556Y-95903809D02*
X86985270Y-96932380D01*
X86032889Y-96741904D02*
X86032889Y-95941904D01*
X85842413Y-95941904D01*
X85728128Y-95980000D01*
X85651937Y-96056190D01*
X85613842Y-96132380D01*
X85575747Y-96284761D01*
X85575747Y-96399047D01*
X85613842Y-96551428D01*
X85651937Y-96627619D01*
X85728128Y-96703809D01*
X85842413Y-96741904D01*
X86032889Y-96741904D01*
X85309080Y-95941904D02*
X84813842Y-95941904D01*
X85080508Y-96246666D01*
X84966223Y-96246666D01*
X84890032Y-96284761D01*
X84851937Y-96322857D01*
X84813842Y-96399047D01*
X84813842Y-96589523D01*
X84851937Y-96665714D01*
X84890032Y-96703809D01*
X84966223Y-96741904D01*
X85194794Y-96741904D01*
X85270985Y-96703809D01*
X85309080Y-96665714D01*
X96073333Y-101763809D02*
X95959047Y-101801904D01*
X95768571Y-101801904D01*
X95692380Y-101763809D01*
X95654285Y-101725714D01*
X95616190Y-101649523D01*
X95616190Y-101573333D01*
X95654285Y-101497142D01*
X95692380Y-101459047D01*
X95768571Y-101420952D01*
X95920952Y-101382857D01*
X95997142Y-101344761D01*
X96035238Y-101306666D01*
X96073333Y-101230476D01*
X96073333Y-101154285D01*
X96035238Y-101078095D01*
X95997142Y-101040000D01*
X95920952Y-101001904D01*
X95730476Y-101001904D01*
X95616190Y-101040000D01*
X95387619Y-101001904D02*
X94930476Y-101001904D01*
X95159047Y-101801904D02*
X95159047Y-101001904D01*
%TD*%
M02*
