%TF.GenerationSoftware,KiCad,Pcbnew,(5.1.9)-1*%
%TF.CreationDate,2021-04-11T01:29:47-07:00*%
%TF.ProjectId,pyaa,70796161-2e6b-4696-9361-645f70636258,rev?*%
%TF.SameCoordinates,Original*%
%TF.FileFunction,Soldermask,Top*%
%TF.FilePolarity,Negative*%
%FSLAX46Y46*%
G04 Gerber Fmt 4.6, Leading zero omitted, Abs format (unit mm)*
G04 Created by KiCad (PCBNEW (5.1.9)-1) date 2021-04-11 01:29:47*
%MOMM*%
%LPD*%
G01*
G04 APERTURE LIST*
%ADD10C,2.000000*%
%ADD11C,1.200000*%
%ADD12O,2.500000X1.700000*%
%ADD13C,2.032000*%
%ADD14C,0.990600*%
%ADD15C,3.429000*%
%ADD16C,1.701800*%
%ADD17R,1.752600X1.752600*%
%ADD18C,1.752600*%
G04 APERTURE END LIST*
D10*
%TO.C,SW1*%
X98000000Y-134850000D03*
X98000000Y-128350000D03*
%TD*%
D11*
%TO.C,J1*%
X90150000Y-132350000D03*
X83150000Y-132350000D03*
D12*
X91950000Y-134450000D03*
X93450000Y-130250000D03*
X84950000Y-134450000D03*
X87950000Y-134450000D03*
D11*
X83150000Y-130600000D03*
X90150000Y-130600000D03*
D12*
X84950000Y-128500000D03*
X87950000Y-128500000D03*
X91950000Y-128500000D03*
X93450000Y-132700000D03*
%TD*%
D13*
%TO.C,K0*%
X192950000Y-106537500D03*
D14*
X200950000Y-96317500D03*
D15*
X196750000Y-101537500D03*
D13*
X192950000Y-96537500D03*
X190850000Y-101537500D03*
D14*
X200950000Y-106757500D03*
D16*
X196750000Y-107037500D03*
X196750000Y-96037500D03*
%TD*%
%TO.C,K1*%
X196750000Y-114037500D03*
X196750000Y-125037500D03*
D14*
X200950000Y-124757500D03*
D13*
X190850000Y-119537500D03*
X192950000Y-114537500D03*
D15*
X196750000Y-119537500D03*
D14*
X200950000Y-114317500D03*
D13*
X192950000Y-124537500D03*
%TD*%
D16*
%TO.C,KA1*%
X115928838Y-145087420D03*
X105095952Y-146997550D03*
D14*
X106101021Y-151085121D03*
D13*
X109487871Y-140232119D03*
X114776571Y-141431975D03*
D15*
X110512395Y-146042485D03*
D14*
X116382414Y-149272234D03*
D13*
X104928493Y-143168456D03*
%TD*%
%TO.C,KHL1*%
X121950000Y-99437500D03*
D14*
X129950000Y-89217500D03*
D15*
X125750000Y-94437500D03*
D13*
X121950000Y-89437500D03*
X119850000Y-94437500D03*
D14*
X129950000Y-99657500D03*
D16*
X125750000Y-99937500D03*
X125750000Y-88937500D03*
%TD*%
%TO.C,KKL1*%
X161750000Y-106937500D03*
X161750000Y-117937500D03*
D14*
X165950000Y-117657500D03*
D13*
X155850000Y-112437500D03*
X157950000Y-107437500D03*
D15*
X161750000Y-112437500D03*
D14*
X165950000Y-107217500D03*
D13*
X157950000Y-117437500D03*
%TD*%
D16*
%TO.C,KN1*%
X133655378Y-141961753D03*
X122822492Y-143871883D03*
D14*
X123827561Y-147959454D03*
D13*
X127214411Y-137106452D03*
X132503111Y-138306308D03*
D15*
X128238935Y-142916818D03*
D14*
X134108954Y-146146567D03*
D13*
X122655033Y-140042789D03*
%TD*%
%TO.C,KO1*%
X87201954Y-146294125D03*
D14*
X98655875Y-152397903D03*
D15*
X92785856Y-149168154D03*
D13*
X97050032Y-144557644D03*
X91761332Y-143357788D03*
D14*
X88374482Y-154210790D03*
D16*
X87369413Y-150123219D03*
X98202299Y-148213089D03*
%TD*%
%TO.C,KPL1*%
X143750000Y-84500000D03*
X143750000Y-95500000D03*
D14*
X147950000Y-95220000D03*
D13*
X137850000Y-90000000D03*
X139950000Y-85000000D03*
D15*
X143750000Y-90000000D03*
D14*
X147950000Y-84780000D03*
D13*
X139950000Y-95000000D03*
%TD*%
D16*
%TO.C,KRL1*%
X125750000Y-106937500D03*
X125750000Y-117937500D03*
D14*
X129950000Y-117657500D03*
D13*
X119850000Y-112437500D03*
X121950000Y-107437500D03*
D15*
X125750000Y-112437500D03*
D14*
X129950000Y-107217500D03*
D13*
X121950000Y-117437500D03*
%TD*%
D16*
%TO.C,KS1*%
X179750000Y-96037500D03*
X179750000Y-107037500D03*
D14*
X183950000Y-106757500D03*
D13*
X173850000Y-101537500D03*
X175950000Y-96537500D03*
D15*
X179750000Y-101537500D03*
D14*
X183950000Y-96317500D03*
D13*
X175950000Y-106537500D03*
%TD*%
%TO.C,KS2*%
X175950000Y-124537500D03*
D14*
X183950000Y-114317500D03*
D15*
X179750000Y-119537500D03*
D13*
X175950000Y-114537500D03*
X173850000Y-119537500D03*
D14*
X183950000Y-124757500D03*
D16*
X179750000Y-125037500D03*
X179750000Y-114037500D03*
%TD*%
%TO.C,KST1*%
X108750000Y-88937500D03*
X108750000Y-99937500D03*
D14*
X112950000Y-99657500D03*
D13*
X102850000Y-94437500D03*
X104950000Y-89437500D03*
D15*
X108750000Y-94437500D03*
D14*
X112950000Y-89217500D03*
D13*
X104950000Y-99437500D03*
%TD*%
%TO.C,KST2*%
X104950000Y-117437500D03*
D14*
X112950000Y-107217500D03*
D15*
X108750000Y-112437500D03*
D13*
X104950000Y-107437500D03*
X102850000Y-112437500D03*
D14*
X112950000Y-117657500D03*
D16*
X108750000Y-117937500D03*
X108750000Y-106937500D03*
%TD*%
D13*
%TO.C,KTL1*%
X157950000Y-99437500D03*
D14*
X165950000Y-89217500D03*
D15*
X161750000Y-94437500D03*
D13*
X157950000Y-89437500D03*
X155850000Y-94437500D03*
D14*
X165950000Y-99657500D03*
D16*
X161750000Y-99937500D03*
X161750000Y-88937500D03*
%TD*%
D13*
%TO.C,KWL1*%
X139950000Y-113000000D03*
D14*
X147950000Y-102780000D03*
D15*
X143750000Y-108000000D03*
D13*
X139950000Y-103000000D03*
X137850000Y-108000000D03*
D14*
X147950000Y-113220000D03*
D16*
X143750000Y-113500000D03*
X143750000Y-102500000D03*
%TD*%
D17*
%TO.C,U1*%
X82880000Y-96380000D03*
D18*
X82880000Y-98920000D03*
X82880000Y-101460000D03*
X82880000Y-104000000D03*
X82880000Y-106540000D03*
X82880000Y-109080000D03*
X82880000Y-111620000D03*
X82880000Y-114160000D03*
X82880000Y-116700000D03*
X82880000Y-119240000D03*
X82880000Y-121780000D03*
X98120000Y-124320000D03*
X98120000Y-121780000D03*
X98120000Y-119240000D03*
X98120000Y-116700000D03*
X98120000Y-114160000D03*
X98120000Y-111620000D03*
X98120000Y-109080000D03*
X98120000Y-106540000D03*
X98120000Y-104000000D03*
X98120000Y-101460000D03*
X98120000Y-98920000D03*
X82880000Y-124320000D03*
X98120000Y-96380000D03*
%TD*%
M02*
